<mxfile host="app.diagrams.net" modified="2023-06-21T18:56:27.051Z" agent="Mozilla/5.0 (Windows NT 10.0; Win64; x64) AppleWebKit/537.36 (KHTML, like Gecko) Chrome/114.0.0.0 Safari/537.36" etag="8CC_9wOHpIMNv5cTtxvF" version="21.5.0" type="device">
  <diagram name="Seite-1" id="WElmJ4yU3Nhhs-XlxIgB">
    <mxGraphModel dx="610" dy="322" grid="1" gridSize="10" guides="1" tooltips="1" connect="1" arrows="1" fold="1" page="1" pageScale="1" pageWidth="827" pageHeight="1169" math="0" shadow="0">
      <root>
        <mxCell id="0" />
        <mxCell id="1" parent="0" />
        <mxCell id="Vj-XeACc_tgST_4PuDKh-1" value="Controller" style="rounded=0;whiteSpace=wrap;html=1;" vertex="1" parent="1">
          <mxGeometry x="350" y="270" width="120" height="50" as="geometry" />
        </mxCell>
        <mxCell id="Vj-XeACc_tgST_4PuDKh-21" style="edgeStyle=orthogonalEdgeStyle;rounded=0;orthogonalLoop=1;jettySize=auto;html=1;shape=link;" edge="1" parent="1" source="Vj-XeACc_tgST_4PuDKh-2">
          <mxGeometry relative="1" as="geometry">
            <mxPoint x="360" y="270" as="targetPoint" />
            <Array as="points">
              <mxPoint x="260" y="250" />
              <mxPoint x="360" y="250" />
            </Array>
          </mxGeometry>
        </mxCell>
        <mxCell id="Vj-XeACc_tgST_4PuDKh-2" value="Module 1" style="rounded=0;whiteSpace=wrap;html=1;fillColor=#f5f5f5;fontColor=#333333;strokeColor=#666666;rotation=-90;" vertex="1" parent="1">
          <mxGeometry x="220" y="140" width="80" height="40" as="geometry" />
        </mxCell>
        <mxCell id="Vj-XeACc_tgST_4PuDKh-19" style="edgeStyle=orthogonalEdgeStyle;rounded=0;orthogonalLoop=1;jettySize=auto;html=1;shape=link;" edge="1" parent="1" source="Vj-XeACc_tgST_4PuDKh-4">
          <mxGeometry relative="1" as="geometry">
            <mxPoint x="380" y="270" as="targetPoint" />
            <Array as="points">
              <mxPoint x="320" y="240" />
              <mxPoint x="380" y="240" />
              <mxPoint x="380" y="270" />
            </Array>
          </mxGeometry>
        </mxCell>
        <mxCell id="Vj-XeACc_tgST_4PuDKh-4" value="Module 2" style="rounded=0;whiteSpace=wrap;html=1;fillColor=#f5f5f5;fontColor=#333333;strokeColor=#666666;rotation=-90;" vertex="1" parent="1">
          <mxGeometry x="280" y="140" width="80" height="40" as="geometry" />
        </mxCell>
        <mxCell id="Vj-XeACc_tgST_4PuDKh-13" style="edgeStyle=orthogonalEdgeStyle;rounded=0;orthogonalLoop=1;jettySize=auto;html=1;shape=link;" edge="1" parent="1" source="Vj-XeACc_tgST_4PuDKh-5">
          <mxGeometry relative="1" as="geometry">
            <mxPoint x="400" y="270" as="targetPoint" />
            <Array as="points">
              <mxPoint x="380" y="230" />
              <mxPoint x="400" y="230" />
            </Array>
          </mxGeometry>
        </mxCell>
        <mxCell id="Vj-XeACc_tgST_4PuDKh-5" value="Module 3" style="rounded=0;whiteSpace=wrap;html=1;fillColor=#f5f5f5;fontColor=#333333;strokeColor=#666666;rotation=-90;" vertex="1" parent="1">
          <mxGeometry x="340" y="140" width="80" height="40" as="geometry" />
        </mxCell>
        <mxCell id="Vj-XeACc_tgST_4PuDKh-15" style="edgeStyle=orthogonalEdgeStyle;rounded=0;orthogonalLoop=1;jettySize=auto;html=1;shape=link;" edge="1" parent="1" source="Vj-XeACc_tgST_4PuDKh-6">
          <mxGeometry relative="1" as="geometry">
            <mxPoint x="420" y="270" as="targetPoint" />
            <Array as="points">
              <mxPoint x="440" y="230" />
              <mxPoint x="420" y="230" />
            </Array>
          </mxGeometry>
        </mxCell>
        <mxCell id="Vj-XeACc_tgST_4PuDKh-6" value="Module 4" style="rounded=0;whiteSpace=wrap;html=1;fillColor=#f5f5f5;fontColor=#333333;strokeColor=#666666;rotation=-90;" vertex="1" parent="1">
          <mxGeometry x="400" y="140" width="80" height="40" as="geometry" />
        </mxCell>
        <mxCell id="Vj-XeACc_tgST_4PuDKh-16" style="edgeStyle=orthogonalEdgeStyle;rounded=0;orthogonalLoop=1;jettySize=auto;html=1;shape=link;" edge="1" parent="1" source="Vj-XeACc_tgST_4PuDKh-7">
          <mxGeometry relative="1" as="geometry">
            <mxPoint x="440" y="270" as="targetPoint" />
            <Array as="points">
              <mxPoint x="500" y="240" />
              <mxPoint x="440" y="240" />
              <mxPoint x="440" y="270" />
            </Array>
          </mxGeometry>
        </mxCell>
        <mxCell id="Vj-XeACc_tgST_4PuDKh-7" value="Module 5" style="rounded=0;whiteSpace=wrap;html=1;fillColor=#f5f5f5;fontColor=#333333;strokeColor=#666666;rotation=-90;" vertex="1" parent="1">
          <mxGeometry x="460" y="140" width="80" height="40" as="geometry" />
        </mxCell>
        <mxCell id="Vj-XeACc_tgST_4PuDKh-18" style="edgeStyle=orthogonalEdgeStyle;rounded=0;orthogonalLoop=1;jettySize=auto;html=1;shape=link;" edge="1" parent="1" source="Vj-XeACc_tgST_4PuDKh-8">
          <mxGeometry relative="1" as="geometry">
            <mxPoint x="460" y="270" as="targetPoint" />
            <Array as="points">
              <mxPoint x="560" y="250" />
              <mxPoint x="460" y="250" />
              <mxPoint x="460" y="270" />
            </Array>
          </mxGeometry>
        </mxCell>
        <mxCell id="Vj-XeACc_tgST_4PuDKh-8" value="Module 6" style="rounded=0;whiteSpace=wrap;html=1;fillColor=#f5f5f5;fontColor=#333333;strokeColor=#666666;rotation=-90;" vertex="1" parent="1">
          <mxGeometry x="520" y="140" width="80" height="40" as="geometry" />
        </mxCell>
        <mxCell id="Vj-XeACc_tgST_4PuDKh-11" style="edgeStyle=orthogonalEdgeStyle;rounded=0;orthogonalLoop=1;jettySize=auto;html=1;entryX=1;entryY=0.5;entryDx=0;entryDy=0;shape=link;" edge="1" parent="1" source="Vj-XeACc_tgST_4PuDKh-10" target="Vj-XeACc_tgST_4PuDKh-1">
          <mxGeometry relative="1" as="geometry" />
        </mxCell>
        <mxCell id="Vj-XeACc_tgST_4PuDKh-10" value="Trigger" style="rounded=0;whiteSpace=wrap;html=1;fillColor=#f5f5f5;fontColor=#333333;strokeColor=#666666;rotation=0;" vertex="1" parent="1">
          <mxGeometry x="600" y="275" width="80" height="40" as="geometry" />
        </mxCell>
      </root>
    </mxGraphModel>
  </diagram>
</mxfile>
